<?xml version="1.0" standalone="no"?>
<!DOCTYPE svg PUBLIC "-//W3C//DTD SVG 20010904//EN"
 "http://www.w3.org/TR/2001/REC-SVG-20010904/DTD/svg10.dtd">
<svg version="1.0" xmlns="http://www.w3.org/2000/svg"
 width="300.000000pt" height="201.000000pt" viewBox="0 0 300.000000 201.000000"
 preserveAspectRatio="xMidYMid meet">
<metadata>
Created by potrace 1.10, written by Peter Selinger 2001-2011
</metadata>
<g transform="translate(0.000000,201.000000) scale(0.100000,-0.100000)"
fill="#000000" stroke="none">
<path d="M910 1949 c8 -15 8 -24 1 -33 -17 -20 0 -58 19 -46 11 7 11 10 2 10
-7 0 -10 5 -7 10 4 6 11 8 16 5 5 -4 9 4 9 16 0 18 2 19 15 9 9 -7 18 -10 21
-7 9 9 -17 48 -29 44 -7 -2 -22 0 -35 4 -20 8 -22 7 -12 -12z"/>
<path d="M2913 1731 c-43 -40 -192 -127 -242 -142 -22 -7 -38 -16 -35 -21 7
-11 -37 -58 -55 -58 -9 0 -11 -7 -8 -21 5 -19 3 -21 -27 -16 -18 3 -39 1 -47
-4 -11 -7 -9 -9 7 -9 12 0 24 -6 27 -14 4 -10 19 -14 49 -12 43 2 46 5 33 38
-5 13 0 19 20 24 25 6 30 32 6 26 -7 -1 -10 2 -6 8 5 8 11 8 20 0 9 -8 15 -8
20 0 3 5 15 10 26 10 11 0 17 5 14 10 -4 6 -16 8 -28 5 -19 -5 -20 -5 -4 5 9
6 22 8 27 5 6 -3 10 -1 10 4 0 6 4 11 10 11 5 0 7 -8 3 -17 -4 -13 -1 -12 11
4 20 27 112 84 121 75 4 -4 5 -1 3 7 -1 7 3 16 10 18 28 10 7 -32 -23 -48 -29
-15 -45 -39 -25 -39 6 0 10 5 10 10 0 6 6 10 13 10 7 0 26 13 42 30 41 43 47
32 36 -59 -1 -3 -6 0 -13 7 -8 8 -18 6 -41 -10 -24 -17 -31 -18 -37 -7 -5 7
-12 11 -15 7 -4 -4 5 -14 20 -24 16 -10 24 -23 20 -32 -4 -12 -3 -13 10 -2 21
18 19 41 -2 33 -10 -3 -14 -2 -10 3 4 4 24 9 43 11 28 1 34 -2 34 -17 0 -13
-9 -22 -25 -26 -14 -3 -25 -10 -25 -16 0 -5 5 -6 10 -3 6 3 10 1 10 -5 0 -6
-14 -13 -30 -17 -29 -5 -52 -23 -31 -23 6 0 11 -4 11 -9 0 -5 -11 -8 -25 -7
-13 2 -22 -1 -19 -5 3 -5 12 -9 20 -9 8 0 14 -4 14 -9 0 -14 -33 -23 -40 -11
-5 8 -12 7 -23 -4 -9 -9 -22 -15 -29 -14 -7 2 -14 -7 -16 -19 -2 -13 -10 -23
-18 -23 -15 0 -15 -21 1 -32 6 -4 -7 -8 -28 -8 -21 0 -47 -5 -58 -10 -16 -9
-21 -7 -27 9 -5 15 -11 18 -22 11 -12 -8 -13 -11 -1 -19 28 -18 -7 -19 -37 -1
-35 22 -40 41 -16 64 18 19 31 20 36 5 3 -9 9 -9 25 0 12 6 31 11 43 11 12 0
19 4 16 9 -7 10 -52 18 -145 26 -56 5 -62 4 -51 -10 13 -15 5 -20 -27 -16 -7
1 -10 -5 -7 -13 9 -23 -52 -9 -83 20 -30 28 -41 30 -49 9 -4 -8 -12 -15 -20
-15 -8 0 -14 -9 -14 -19 0 -11 -4 -23 -10 -26 -5 -3 -10 -2 -10 4 0 6 -7 8
-16 4 -10 -4 -17 1 -21 16 -7 27 -30 27 -38 1 -7 -21 -41 -28 -47 -10 -2 6 -9
1 -16 -10 -10 -17 -10 -21 4 -27 9 -3 20 0 24 7 10 16 25 -10 34 -60 l7 -35
-21 38 c-11 20 -23 37 -26 37 -2 0 0 -8 5 -18 7 -14 6 -19 -4 -19 -8 0 -12 4
-10 8 9 14 -25 31 -50 25 -32 -8 -32 -26 0 -26 14 0 25 -3 25 -8 0 -4 -20 -6
-45 -4 -33 3 -45 8 -46 21 0 13 -2 12 -8 -3 -7 -18 -8 -18 -14 -2 -10 24 -9
26 8 26 8 0 15 4 15 9 0 5 -9 7 -20 4 -11 -3 -20 0 -20 6 0 6 14 11 31 11 17
0 37 7 45 15 14 13 13 15 -6 15 -13 0 -19 4 -14 12 4 7 3 8 -5 4 -8 -6 -9 -11
-2 -20 9 -10 4 -13 -19 -11 -75 4 -70 0 -70 65 0 57 1 60 24 60 13 0 26 -4 28
-9 2 -6 21 -6 48 0 25 5 54 11 65 13 11 1 30 6 43 10 17 6 27 3 37 -11 7 -10
17 -15 21 -10 4 4 2 7 -4 7 -7 0 -12 6 -12 14 0 9 7 12 20 9 11 -3 18 -8 16
-12 -2 -3 10 -6 27 -6 18 1 35 -4 39 -10 5 -7 14 -6 28 3 11 7 20 8 20 2 0 -5
20 -15 45 -21 56 -14 59 -31 5 -24 -23 3 -40 1 -40 -5 0 -6 11 -10 25 -10 17
0 25 -6 25 -17 1 -15 4 -14 20 5 10 13 28 24 40 25 12 1 20 8 20 20 0 16 -2
17 -15 7 -20 -17 -32 -4 -18 19 11 17 7 20 -35 32 -26 7 -49 12 -52 12 -3 -1
-10 2 -15 7 -15 13 -134 11 -187 -2 -66 -16 -141 3 -194 49 -25 22 -77 49
-141 73 l-102 39 -208 -70 c-114 -38 -216 -73 -225 -79 -10 -5 -28 -10 -40 -9
l-23 0 22 11 c27 13 31 33 6 23 -18 -7 -41 -13 -56 -14 -5 -1 -5 -7 0 -13 4
-7 8 -19 9 -26 4 -21 25 -42 37 -35 6 4 8 0 4 -10 -3 -9 -2 -19 3 -22 6 -4 10
-1 10 5 0 7 8 9 19 5 12 -3 21 0 25 10 3 10 -1 15 -12 15 -20 1 -72 29 -57 31
6 1 21 0 34 -1 14 -1 21 2 17 9 -5 7 2 11 18 11 13 0 51 8 85 19 33 10 63 16
66 13 3 -3 5 0 5 6 0 7 9 12 20 12 10 0 34 6 52 14 18 8 66 24 106 37 l72 22
68 -22 c37 -11 73 -21 79 -21 6 0 18 -7 27 -15 8 -8 23 -16 34 -18 11 -2 26
-8 34 -15 8 -6 34 -20 58 -31 37 -16 41 -20 20 -20 -14 -1 -41 3 -60 9 -28 7
-59 3 -150 -20 -63 -15 -108 -28 -100 -29 8 0 59 10 114 23 61 15 108 21 125
17 21 -6 15 -9 -34 -15 -33 -4 -76 -11 -95 -16 -55 -15 -362 -83 -397 -88 -19
-2 -33 -10 -33 -18 0 -8 -10 -14 -22 -15 -13 0 -34 -2 -48 -4 -14 -1 -32 4
-42 12 -13 12 -17 12 -24 1 -4 -7 -4 -10 1 -6 5 5 15 -1 23 -13 10 -15 17 -17
27 -9 10 8 18 4 34 -16 24 -30 27 -49 8 -41 -7 3 -33 1 -58 -3 -36 -7 -46 -6
-58 8 -13 16 -13 16 -8 0 5 -14 1 -18 -16 -18 -13 0 -29 -6 -35 -12 -10 -10
-15 -10 -22 2 -6 10 -13 11 -19 5 -20 -20 3 -34 40 -26 37 8 102 9 129 0 10
-3 14 2 12 14 -3 16 0 17 18 7 16 -9 25 -9 33 -1 16 16 27 13 27 -8 0 -20 -19
-24 -160 -36 -93 -8 -107 -13 -104 -38 4 -33 4 -33 17 -16 7 9 24 19 39 22 22
6 27 3 31 -15 l4 -23 2 23 c0 13 7 22 17 22 13 0 15 -7 10 -33 -6 -33 -5 -34
24 -32 16 1 30 -2 30 -7 0 -5 5 -6 10 -3 16 10 12 25 -6 25 -17 0 -43 27 -44
44 0 4 11 6 25 4 13 -3 26 -2 27 2 2 4 20 10 41 14 l37 7 0 -38 0 -38 -24 30
-23 29 -8 -24 c-5 -17 -3 -27 9 -35 10 -8 16 -27 16 -54 0 -34 -3 -41 -19 -41
-12 0 -21 9 -25 25 -4 14 -13 25 -20 25 -13 0 -31 -27 -28 -42 1 -5 -10 -8
-24 -8 -21 0 -25 4 -21 20 3 13 0 20 -9 20 -8 0 -14 -9 -14 -20 0 -13 -7 -20
-19 -20 -22 0 -31 19 -31 62 0 17 -3 28 -7 25 -3 -4 -13 2 -20 13 -16 22 -33
18 -33 -7 0 -9 6 -13 14 -10 15 6 44 -48 32 -60 -3 -3 -6 -1 -6 5 0 7 -4 12
-10 12 -15 0 -12 -30 3 -30 6 0 4 -5 -6 -11 -14 -8 -24 -7 -43 5 -23 16 -24
16 -24 -6 -1 -22 -1 -22 -15 -4 -7 10 -18 15 -24 11 -7 -3 -11 3 -11 15 0 12
-4 18 -10 15 -6 -3 -10 -15 -10 -25 0 -13 -5 -17 -14 -14 -11 4 -13 12 -5 31
5 13 9 41 9 60 0 20 3 33 7 30 3 -4 12 -2 20 4 8 8 13 8 13 1 0 -6 -6 -12 -12
-14 -9 -3 -8 -12 6 -32 19 -30 34 -29 17 1 -7 14 -6 27 5 48 10 20 11 30 4 35
-7 4 -11 13 -10 21 4 28 0 39 -15 39 -17 0 -20 17 -4 22 6 2 -5 9 -24 15 -31
9 -38 8 -53 -8 -10 -11 -12 -19 -6 -19 7 0 12 5 12 10 0 6 5 10 10 10 13 0 13
-47 0 -55 -6 -4 -8 -11 -5 -16 8 -12 -4 -49 -15 -49 -4 0 -11 7 -14 16 -5 12
-2 15 11 10 16 -6 16 -6 0 12 -9 10 -17 24 -17 30 0 6 -12 9 -27 8 -16 -2 -28
-5 -28 -6 0 -1 -13 -4 -30 -6 -48 -7 -55 -12 -55 -36 1 -21 2 -22 14 -5 16 21
26 22 26 2 0 -12 4 -13 18 -6 13 7 22 7 29 0 7 -7 13 -2 17 16 8 31 18 26 23
-9 4 -29 -27 -39 -88 -30 -31 5 -40 4 -35 -4 4 -7 2 -12 -4 -12 -7 0 -10 6 -7
14 3 8 -1 17 -10 20 -12 5 -14 1 -10 -14 3 -11 1 -20 -4 -20 -5 0 -9 -6 -9
-14 0 -8 -5 -18 -10 -21 -6 -4 -10 10 -10 33 0 34 4 41 26 46 20 5 23 10 15
20 -9 11 -17 8 -43 -16 -22 -20 -33 -25 -38 -17 -10 15 -33 1 -26 -17 3 -7 -2
-20 -10 -29 -10 -10 -13 -22 -9 -33 4 -9 9 -28 11 -42 2 -19 1 -21 -6 -9 -17
29 -66 10 -61 -23 3 -18 -10 -6 -21 20 -15 38 -16 103 -1 127 22 33 14 40 -9
9 -13 -16 -26 -30 -30 -32 -14 -6 -8 -21 6 -16 10 4 14 0 12 -12 -2 -10 -8
-20 -14 -22 -7 -2 -4 -15 9 -35 23 -38 24 -47 4 -47 -14 0 -19 12 -16 33 0 4
-3 7 -8 7 -15 0 -22 32 -10 46 8 9 8 14 1 14 -6 0 -14 -5 -17 -11 -4 -6 -12
-8 -19 -6 -7 3 -13 -5 -14 -16 -1 -18 1 -19 9 -7 8 13 11 13 23 -3 8 -10 12
-27 9 -37 -6 -22 -38 -27 -46 -7 -4 10 -6 9 -6 0 -1 -7 -8 -13 -16 -13 -9 0
-12 6 -9 15 4 8 1 15 -5 15 -20 0 -26 -5 -23 -19 3 -12 1 -13 -11 -3 -12 10
-16 9 -21 -3 -3 -9 -1 -15 7 -14 34 4 38 -1 33 -51 -6 -55 -3 -61 14 -29 8 13
8 24 2 32 -7 8 -6 18 2 29 11 15 39 17 223 20 116 2 214 6 218 10 4 4 4 12 0
18 -6 9 -10 9 -16 -1 -6 -10 -9 -7 -9 11 0 15 5 31 12 38 7 7 13 22 13 35 0
17 6 22 25 23 14 0 32 4 39 9 11 6 13 3 9 -13 -4 -14 2 -28 18 -43 28 -26 31
-44 8 -53 -26 -10 -32 -7 -27 14 3 11 0 27 -7 35 -7 8 -10 22 -6 30 4 13 2 14
-14 5 -22 -12 -33 -44 -28 -86 3 -25 8 -29 38 -32 26 -2 31 0 20 8 -13 8 -13
10 3 10 9 0 17 -5 17 -11 0 -14 773 -1 982 17 38 3 74 2 80 -2 20 -13 141 -5
150 9 4 7 8 38 8 70 0 31 4 57 9 57 12 0 25 -82 18 -109 -3 -15 2 -20 24 -25
24 -5 29 -10 29 -36 0 -28 3 -31 23 -24 12 3 28 10 36 14 7 4 29 4 47 0 19 -4
36 -5 38 -1 2 3 0 29 -4 56 -7 45 -7 47 -9 13 l-1 -37 -55 0 c-52 1 -75 14
-37 21 14 3 17 14 17 63 l0 59 43 -1 c23 -1 40 2 37 7 -10 15 45 40 89 40 25
0 47 4 51 9 3 5 21 7 40 4 21 -3 35 -2 35 5 0 6 -18 13 -40 17 -30 5 -40 11
-40 26 0 12 7 19 20 19 13 0 20 -7 20 -20 0 -16 7 -20 36 -20 20 0 33 -4 29
-10 -6 -9 263 -5 273 5 6 5 -25 7 -170 8 -70 1 -85 4 -76 14 6 7 20 13 32 13
37 1 120 27 124 38 2 7 -1 12 -8 12 -6 0 -8 -4 -5 -10 3 -5 2 -10 -4 -10 -16
0 -25 22 -11 30 16 10 46 2 61 -16 9 -11 8 -14 -6 -14 -10 0 -15 -3 -11 -7 4
-5 -12 -13 -36 -20 -42 -12 -42 -12 26 -8 44 3 75 10 85 20 14 13 13 15 -11
15 -26 0 -53 22 -41 33 3 4 -1 7 -10 7 -10 0 -17 5 -17 11 0 5 -6 7 -12 4 -7
-4 -4 1 6 9 14 11 23 13 32 5 16 -13 34 -4 34 17 0 8 4 14 10 14 5 0 7 6 5 13
-6 13 25 36 56 42 25 5 24 -7 -1 -23 -11 -7 -20 -17 -20 -23 0 -7 -8 -18 -17
-25 -17 -12 -17 -13 2 -8 25 5 50 -10 41 -25 -4 -6 -17 -11 -29 -12 -12 0 -16
-3 -9 -6 6 -2 12 -9 12 -14 0 -6 -4 -7 -10 -4 -6 4 -7 -1 -3 -11 4 -10 0 -21
-9 -28 -13 -10 -14 -15 -3 -30 13 -17 14 -17 24 3 10 17 9 20 -5 14 -12 -4
-15 -3 -10 5 4 7 16 12 27 12 12 0 17 -4 13 -11 -3 -6 0 -15 7 -20 11 -7 10
-9 -3 -9 -22 0 -23 -19 -2 -27 12 -5 13 -7 3 -14 -8 -5 -17 -3 -21 4 -5 7 -8
2 -8 -13 0 -19 -3 -22 -9 -11 -8 12 -18 13 -55 4 -33 -7 -48 -7 -58 2 -9 8
-42 9 -113 4 -55 -4 -142 -7 -192 -8 -89 -1 -93 -2 -99 -25 -4 -19 -1 -96 6
-133 0 -2 14 -3 30 -3 30 0 37 11 24 44 -9 24 -27 19 -21 -5 4 -16 3 -18 -9
-8 -9 7 -14 30 -14 61 0 44 2 49 15 38 9 -7 27 -10 45 -6 l30 6 0 -51 c0 -50
1 -51 26 -46 14 2 40 1 58 -3 l32 -7 2 44 c2 48 -12 56 -30 18 -10 -23 -13
-24 -21 -9 -6 11 -5 19 4 26 11 8 11 9 -1 5 -8 -2 -18 -17 -21 -33 -6 -26 -7
-24 -8 12 l-1 42 60 1 c54 0 60 -1 60 -20 0 -11 -7 -27 -15 -35 -17 -17 -21
-69 -5 -59 6 3 10 16 10 28 0 18 2 19 11 7 8 -13 12 -12 24 5 12 18 22 20 67
15 40 -4 56 -1 66 10 12 13 13 13 8 -2 -3 -10 -1 -18 4 -18 6 0 10 3 10 8 0
11 43 28 61 24 9 -2 19 -15 22 -30 5 -25 4 -25 -9 -7 -8 10 -14 13 -14 6 0 -8
-7 -10 -19 -6 -10 3 -31 0 -47 -6 -16 -7 -31 -13 -34 -14 -3 -1 -13 -5 -23
-10 -10 -4 -40 -5 -68 -2 -30 4 -49 2 -49 -4 0 -9 166 -8 283 3 l38 3 -1 358
c-1 196 -4 357 -8 357 -4 0 -21 -14 -39 -29z m-1012 -282 c5 -8 8 -46 7 -86
l-3 -71 -75 -10 c-41 -5 -76 -8 -77 -8 -1 1 0 26 4 54 3 32 11 52 19 52 7 0
15 6 17 13 3 6 6 -7 6 -31 1 -41 2 -42 29 -36 15 4 34 10 42 15 13 7 12 8 -2
9 -10 0 -18 5 -18 10 0 6 5 10 11 10 5 0 7 5 4 10 -7 11 -28 -6 -38 -30 -3 -8
-6 4 -6 27 -1 43 14 67 25 39 7 -18 46 -15 52 4 3 7 0 10 -7 6 -10 -6 -60 22
-61 34 0 12 63 2 71 -11z m-103 -18 c-26 -34 -48 -40 -48 -13 0 10 12 23 28
29 43 17 45 15 20 -16z m-145 -35 c-10 -14 -24 -26 -30 -26 -12 0 -18 -45 -14
-92 2 -21 -6 -26 -62 -32 l-46 -6 3 48 c3 39 8 48 25 50 17 3 21 -2 21 -22 0
-14 4 -26 10 -26 6 0 8 15 4 34 -5 32 -3 34 17 29 l23 -6 -23 24 c-20 21 -20
24 -5 27 9 2 20 -1 24 -8 5 -8 9 -7 13 4 6 15 47 38 55 31 2 -2 -4 -15 -15
-29z m91 8 c4 -15 4 -50 1 -79 l-7 -53 -59 -9 -59 -10 4 51 c3 39 8 51 25 58
19 7 21 4 21 -27 0 -32 2 -34 24 -25 13 5 27 6 30 3 3 -4 6 7 5 23 0 25 -2 26
-9 9 -5 -11 -9 -16 -9 -11 -1 5 -8 3 -16 -4 -13 -11 -15 -8 -15 18 0 27 3 30
24 26 14 -2 28 0 31 6 3 5 1 10 -5 10 -6 0 -20 9 -32 20 l-22 20 31 0 c25 0
32 -5 37 -26z m-216 -33 c-7 -12 -18 -21 -25 -21 -9 0 -13 -17 -13 -54 0 -59
-7 -66 -66 -66 -24 0 -34 5 -34 15 0 8 5 15 11 15 6 0 9 11 7 23 -1 13 5 32
15 41 16 17 17 16 17 -16 0 -25 -3 -29 -10 -18 -8 13 -10 12 -10 -3 0 -14 6
-18 25 -15 14 2 25 8 24 13 0 6 -5 9 -10 8 -5 -2 -8 17 -7 42 2 29 7 45 15 45
7 0 13 -6 13 -12 0 -9 3 -10 8 -2 8 12 45 34 50 29 2 -2 -3 -12 -10 -24z m997
8 c-4 -6 -13 -8 -20 -5 -7 2 -16 -2 -19 -10 -3 -8 -12 -14 -21 -14 -20 0 -19
10 3 26 21 16 66 19 57 3z m-187 -18 c3 -10 0 -12 -11 -8 -11 4 -14 2 -10 -9
3 -10 -2 -14 -18 -15 -13 0 -19 -3 -12 -5 7 -3 10 -19 7 -42 -5 -33 -4 -35 9
-19 15 18 47 23 47 7 0 -5 -7 -10 -15 -10 -8 0 -15 -5 -15 -11 0 -6 -10 -9
-22 -7 -21 3 -23 8 -22 55 1 28 4 59 8 68 7 20 47 17 54 -4z m-918 -11 c-6
-11 -15 -20 -20 -20 -6 0 -10 -11 -10 -25 0 -16 -6 -25 -16 -25 -8 0 -13 4 -9
9 3 5 1 12 -4 16 -12 7 -3 35 11 35 5 0 16 7 24 15 22 22 37 19 24 -5z m767 3
c0 -10 -4 -24 -10 -31 -7 -9 -7 -16 1 -24 14 -14 16 -28 3 -28 -13 0 -21 42
-11 55 6 7 7 15 4 18 -3 3 -3 10 1 16 9 15 12 14 12 -6z m53 -39 c0 -3 -4 -3
-9 1 -5 3 -13 0 -17 -6 -4 -7 -3 -10 2 -7 5 3 20 2 33 -3 19 -8 21 -12 11 -24
-7 -8 -10 -15 -6 -15 4 0 -1 -14 -9 -30 -9 -17 -20 -28 -25 -25 -6 4 -10 -2
-10 -12 -1 -17 -1 -17 -12 1 -8 14 -7 21 3 27 8 4 23 15 34 23 18 13 18 15 3
16 -12 0 -16 5 -12 18 3 9 -4 2 -16 -16 -13 -18 -25 -31 -28 -28 -3 3 1 12 7
20 7 8 11 20 10 28 -1 7 -1 23 0 36 1 20 4 21 21 12 11 -6 20 -13 20 -16z
m173 11 c15 -6 16 -10 5 -16 -8 -6 -1 -9 22 -9 24 0 31 3 21 9 -7 5 -10 14 -7
20 15 24 26 8 26 -39 0 -46 -2 -50 -25 -50 -18 0 -23 4 -19 15 4 8 2 15 -3 15
-4 0 -20 11 -35 25 -15 14 -30 21 -33 15 -7 -12 -55 -14 -55 -2 0 21 68 33
103 17z m-1439 -76 c3 -19 0 -41 -9 -57 -14 -26 -14 -25 -13 31 1 62 12 75 22
26z m930 -47 c0 -31 -1 -81 -2 -109 l-2 -53 -40 0 -40 0 0 73 c0 53 3 68 11
57 9 -12 12 -13 16 -1 4 10 7 10 13 1 4 -7 13 -11 20 -8 8 2 1 15 -19 33 -37
35 -39 52 -8 58 52 10 52 10 51 -51z m37 41 c1 -17 2 -17 6 0 9 35 23 16 22
-30 -1 -45 -1 -46 -11 -20 -6 18 -15 26 -24 23 -10 -4 -14 2 -14 19 0 28 19
35 21 8z m-121 -8 c0 -8 -9 -23 -20 -32 -11 -10 -20 -23 -20 -30 0 -7 -6 -10
-13 -8 -17 7 -15 68 3 77 26 12 50 8 50 -7z m334 -10 c9 -31 7 -55 -4 -55 -5
0 -11 17 -12 38 -1 36 -1 36 -5 5 l-4 -33 -70 0 -69 0 0 33 0 33 79 -1 c71 0
81 -2 85 -20z m-410 -46 c3 -34 6 -80 6 -101 0 -38 -1 -39 -32 -36 -29 3 -33
7 -36 35 -3 28 -6 31 -25 24 -12 -4 -28 -6 -35 -4 -7 3 -12 1 -11 -4 6 -35 -3
-53 -26 -53 -23 0 -25 3 -25 50 0 47 1 50 26 50 19 0 25 -4 21 -14 -4 -10 -1
-13 8 -10 10 4 12 19 8 60 -6 53 -5 54 21 54 30 0 36 -26 9 -45 -16 -12 -9
-40 8 -30 5 4 10 -4 10 -17 1 -17 3 -18 6 -5 3 11 14 17 34 17 l30 0 -30 33
c-36 37 -37 44 -13 50 36 10 39 6 46 -54z m656 52 c0 -13 -41 -31 -75 -32 -22
-1 -32 -3 -22 -6 22 -6 12 -23 -14 -23 -15 0 -19 7 -19 33 l0 32 65 0 c36 1
65 -1 65 -4z m80 -11 c-20 -13 -60 -13 -60 0 0 6 17 10 38 10 27 0 33 -3 22
-10z m-873 -35 c3 -41 -7 -45 -33 -10 -17 23 -19 23 -36 8 -22 -20 -23 -43 -3
-43 8 0 15 -4 15 -10 0 -13 -11 -12 -32 4 -10 7 -18 26 -18 44 0 33 6 36 70
40 33 2 35 1 37 -33z m653 10 c0 -18 -5 -25 -20 -25 -24 0 -25 8 -3 32 21 23
23 23 23 -7z m-772 -23 c4 -38 -6 -40 -31 -7 -20 28 -14 48 11 43 11 -2 18
-15 20 -36z m-58 19 c0 -17 -27 -61 -33 -54 -4 3 -7 19 -7 35 0 21 5 28 20 28
11 0 20 -4 20 -9z m530 -31 c6 0 10 -26 10 -61 0 -57 -1 -60 -22 -57 -21 3
-23 9 -26 67 -4 75 5 109 19 74 4 -13 13 -23 19 -23z m240 -32 c0 -16 -4 -28
-10 -28 -5 0 -10 19 -10 43 0 31 3 38 10 27 5 -8 10 -27 10 -42z m-391 -50 c1
-29 -3 -38 -15 -38 -11 0 -14 5 -10 16 3 9 -2 29 -11 46 -17 28 -17 30 2 44
18 14 21 13 27 -8 3 -13 6 -40 7 -60z m316 22 l0 -60 -52 -1 c-29 -1 -59 -2
-65 -3 -14 -1 -26 63 -19 102 3 20 9 22 70 22 l67 0 -1 -60z m133 -2 c3 -54 2
-58 -23 -64 -33 -8 -38 -3 -25 30 5 15 10 43 10 62 0 28 4 35 18 32 13 -2 18
-15 20 -60z m432 30 c-23 -8 -40 -3 -40 12 0 13 33 18 48 6 11 -8 9 -12 -8
-18z m239 13 c8 -15 7 -20 -8 -24 -10 -2 -26 0 -35 5 -11 6 -21 6 -30 -1 -6
-5 -22 -8 -33 -5 -12 3 -45 1 -73 -5 -61 -13 -83 -5 -43 17 16 9 59 16 101 18
41 1 76 5 79 8 12 12 33 6 42 -13z m-2251 -17 c1 -17 -3 -22 -18 -21 -18 1
-28 26 -15 39 13 12 31 2 33 -18z m256 0 c4 -15 4 -29 1 -32 -8 -8 -25 19 -25
41 0 26 17 20 24 -9z m1576 -10 c0 -21 -4 -33 -10 -29 -5 3 -10 19 -10 36 0
16 5 29 10 29 6 0 10 -16 10 -36z m-1700 5 c0 -10 -7 -24 -15 -32 -8 -8 -11
-17 -8 -21 4 -3 1 -6 -6 -6 -9 0 -11 10 -7 33 3 17 3 26 0 19 -3 -6 -10 -10
-15 -6 -15 9 -10 22 9 26 33 7 42 5 42 -13z m592 -12 c4 17 13 21 42 20 25 -1
36 -6 37 -16 1 -13 2 -13 6 1 6 22 33 12 33 -13 0 -10 -4 -19 -10 -19 -5 0
-10 -11 -10 -24 0 -13 -7 -26 -14 -29 -11 -4 -13 -1 -9 10 6 15 -5 14 -52 -4
-6 -2 -11 6 -12 18 -3 40 -23 40 -26 0 -1 -11 -7 -21 -14 -21 -17 0 -18 87 0
93 6 2 15 -6 18 -17 l5 -21 6 22z m-652 -12 c0 -7 -6 -16 -12 -18 -8 -3 -5 -6
6 -6 12 -1 16 -6 12 -17 -3 -9 -6 -20 -6 -26 0 -6 -11 1 -25 16 -29 32 -30 39
-9 60 17 18 34 13 34 -9z m800 -19 c0 -36 -13 -55 -25 -36 -4 6 -1 17 5 25 7
8 10 22 6 30 -3 8 -1 15 4 15 6 0 10 -15 10 -34z m-862 -13 c3 -21 -20 -25
-47 -9 -11 7 -11 12 5 23 23 17 38 12 42 -14z m192 -14 c0 -25 -4 -38 -10 -34
-6 4 -8 10 -5 15 3 5 1 20 -5 34 -7 21 -6 26 5 26 11 0 15 -11 15 -41z m779
15 c6 4 11 0 11 -8 0 -10 -9 -16 -25 -16 -14 0 -25 6 -25 13 0 20 12 29 21 16
4 -6 12 -8 18 -5z"/>
<path d="M1860 1101 c0 -22 5 -43 10 -46 6 -4 10 12 10 39 0 25 -4 46 -10 46
-5 0 -10 -18 -10 -39z"/>
<path d="M878 1653 c-31 -7 -19 -24 12 -19 17 2 28 0 24 -5 -3 -5 -14 -9 -25
-9 -10 0 -19 -4 -19 -10 0 -5 8 -10 19 -10 10 0 36 -8 57 -17 22 -9 45 -16 53
-14 7 1 11 -4 9 -11 -3 -7 -15 -15 -29 -16 -13 -2 -28 -7 -34 -12 -18 -13 -64
-20 -70 -10 -3 5 -18 10 -33 10 -19 0 -23 -3 -13 -9 11 -7 11 -10 0 -15 -8 -3
-5 -4 6 -1 11 2 26 1 34 -4 21 -13 -17 -30 -53 -24 -20 4 -27 2 -22 -5 6 -11
-26 -34 -41 -30 -22 6 -104 -15 -111 -29 -5 -8 -32 -23 -60 -33 -28 -10 -64
-32 -81 -49 -18 -19 -40 -31 -56 -31 -14 0 -28 -6 -31 -14 -3 -8 -13 -12 -25
-9 -10 3 -19 1 -19 -5 0 -6 -14 -13 -30 -17 -17 -4 -28 -10 -25 -15 3 -5 1
-11 -5 -15 -5 -3 -10 -15 -10 -26 0 -11 -4 -17 -10 -14 -6 3 -10 1 -10 -6 0
-23 -35 -38 -88 -39 -33 0 -51 -4 -47 -10 4 -6 -17 -10 -55 -10 l-61 0 2 -45
c2 -25 7 -45 13 -45 6 0 5 -5 -2 -12 -16 -16 -15 -65 1 -71 9 -4 9 -8 -1 -15
-18 -12 -12 -52 10 -66 22 -13 35 -1 18 18 -14 17 -20 76 -8 76 13 0 9 28 -4
33 -7 3 -3 6 10 6 21 1 26 14 25 59 -1 6 10 12 23 12 19 0 23 -5 21 -22 -1
-13 -6 -26 -10 -29 -5 -3 -2 -9 7 -12 9 -4 17 -1 17 6 1 7 2 18 3 26 0 8 13
18 28 22 20 5 25 4 22 -6 -9 -23 29 -11 58 18 15 15 33 27 39 27 12 0 38 29
39 43 0 15 -19 6 -24 -11 -4 -12 -16 -18 -36 -17 -37 0 -45 19 -9 23 14 2 38
14 54 27 15 14 32 25 37 25 5 0 24 16 44 35 19 19 41 35 49 35 8 0 15 6 15 13
0 8 22 28 49 45 48 31 91 42 91 22 0 -5 -12 -10 -27 -10 -16 0 -35 -5 -43 -10
-13 -8 -12 -10 4 -10 16 0 17 -2 5 -16 -9 -11 -15 -12 -17 -5 -3 8 -9 5 -18
-6 -9 -12 -13 -13 -14 -5 0 7 -5 10 -10 7 -18 -11 0 -25 34 -25 25 0 33 4 32
16 0 9 13 24 29 34 17 9 31 26 33 37 2 16 8 19 24 15 14 -3 19 -1 14 6 -5 8 4
12 28 12 20 0 36 4 36 8 0 4 14 13 31 19 25 10 30 9 26 -1 -7 -16 30 -10 53 9
8 7 22 15 30 18 8 3 0 6 -18 6 -18 1 -31 5 -28 10 3 5 22 8 42 7 27 -1 38 3
41 15 5 19 53 45 53 28 0 -6 5 -7 10 -4 6 3 10 2 10 -4 0 -6 7 -8 15 -5 10 4
15 0 16 -12 0 -12 3 -14 6 -6 3 9 9 10 17 3 8 -7 12 -4 13 10 1 13 -4 20 -15
18 -29 -2 -65 13 -51 22 7 4 21 3 30 -2 9 -5 41 -10 70 -13 29 -2 55 -9 57
-15 2 -6 8 -11 14 -11 6 0 5 6 -2 15 -16 20 -5 32 14 16 9 -7 17 -8 20 -2 3 5
1 11 -5 13 -19 6 2 36 29 42 15 3 34 10 42 15 18 12 7 26 -12 15 -19 -12 -160
-16 -153 -4 3 6 -5 10 -18 10 -25 0 -52 22 -41 33 3 3 14 1 25 -6 10 -6 21 -8
25 -4 15 15 -10 22 -80 22 -39 1 -76 3 -81 6 -6 3 -18 4 -27 2z m120 -43 c3
-9 0 -10 -9 -4 -12 7 -12 5 0 -9 9 -12 10 -17 2 -17 -6 0 -14 7 -17 15 -4 8
-15 15 -26 15 -17 0 -18 3 -8 14 13 17 51 8 58 -14z m38 -71 c4 -8 9 -7 15 2
4 7 11 10 16 6 4 -5 2 -12 -5 -16 -17 -10 -64 -2 -56 10 7 12 21 11 30 -2z
m-798 -430 c12 -19 12 -19 -98 -25 -55 -4 -81 -2 -75 4 14 14 94 20 99 7 2 -5
5 -1 5 10 1 15 8 20 30 20 16 0 34 -7 39 -16z"/>
<path d="M2778 1558 c-16 -5 -28 -16 -28 -23 0 -8 -9 -17 -20 -20 -11 -3 -20
-10 -20 -15 0 -5 -3 -17 -7 -27 -4 -13 3 -9 25 11 18 17 32 36 32 44 0 9 7 13
20 9 11 -3 18 -1 15 3 -3 5 1 10 7 13 7 2 11 7 8 9 -3 3 -17 1 -32 -4z"/>
<path d="M2663 1490 c-13 -5 -23 -18 -23 -29 0 -11 -3 -26 -6 -34 -3 -10 3
-17 19 -21 14 -3 33 -9 44 -12 17 -5 17 -5 1 9 -22 17 -23 29 -4 25 8 -2 15 2
15 7 0 12 -33 7 -37 -6 -5 -12 -22 -12 -22 0 0 5 10 13 21 16 16 5 18 9 8 15
-10 7 -10 11 0 24 15 18 15 18 -16 6z"/>
<path d="M2783 1493 c22 -6 22 -20 -1 -27 -36 -12 -92 -96 -63 -96 5 0 13 9
16 20 4 11 11 17 17 14 7 -5 9 -1 5 8 -3 11 1 18 13 21 11 3 21 2 23 -2 2 -3
3 -1 1 5 -3 14 6 27 34 46 23 15 22 16 -20 15 -24 0 -35 -2 -25 -4z"/>
<path d="M1165 1470 c3 -5 -1 -10 -9 -10 -9 0 -16 -4 -16 -10 0 -5 11 -10 25
-10 23 0 24 2 15 20 -6 11 -13 20 -16 20 -3 0 -2 -4 1 -10z"/>
<path d="M2117 1459 c-47 -27 16 -46 83 -25 35 11 41 16 27 21 -10 4 -30 2
-45 -6 -15 -7 -31 -15 -36 -18 -5 -2 -6 3 -3 12 8 21 -4 28 -26 16z"/>
<path d="M1021 1441 c-8 -5 -9 -11 -3 -15 6 -3 13 -2 17 4 4 6 11 7 17 4 6 -4
29 -9 51 -11 48 -4 57 -10 37 -24 -12 -9 -12 -10 3 -5 10 3 21 6 23 6 2 0 4 4
4 10 0 26 -117 51 -149 31z"/>
<path d="M1976 1425 c-11 -8 -16 -18 -12 -22 4 -4 11 -1 16 6 7 12 13 12 41
-1 25 -13 36 -14 51 -5 27 18 22 27 -14 25 -18 -1 -40 2 -48 5 -8 4 -24 0 -34
-8z"/>
<path d="M1190 1423 c0 -9 78 -43 98 -43 6 0 12 -4 12 -10 0 -5 7 -10 15 -10
17 0 18 2 9 24 -3 9 -17 16 -30 16 -14 0 -41 7 -61 15 -41 17 -43 18 -43 8z"/>
<path d="M2230 1415 c-7 -8 -20 -15 -29 -16 -9 0 -4 -5 12 -11 15 -5 27 -15
27 -21 0 -7 4 -6 10 3 5 9 5 19 -1 27 -6 7 -8 17 -4 23 9 15 -1 12 -15 -5z"/>
<path d="M869 1403 c-1 -5 -1 -11 0 -15 0 -4 -5 -5 -12 -3 -15 6 -44 -11 -35
-21 4 -3 24 -3 45 1 31 6 34 8 20 16 -10 6 -15 14 -12 20 4 5 4 9 1 9 -3 0 -7
-3 -7 -7z"/>
<path d="M915 1389 c-6 -9 -3 -11 8 -6 10 3 17 2 17 -3 0 -6 6 -9 13 -7 6 1
11 -3 10 -9 -1 -7 12 -12 32 -12 19 0 35 4 35 10 0 5 -5 6 -12 2 -6 -4 -16 0
-23 9 -16 22 -70 33 -80 16z"/>
<path d="M2078 1378 c-11 -16 -13 -30 -7 -39 7 -11 9 -9 9 7 0 22 26 29 46 13
7 -6 16 -3 24 6 10 12 10 15 -3 15 -8 0 -18 6 -20 13 -4 9 -8 9 -15 -2 -7 -10
-11 -10 -14 -1 -2 8 -10 3 -20 -12z"/>
<path d="M1125 1369 c-4 -5 -3 -9 2 -9 4 0 18 -3 31 -6 17 -5 21 -3 17 8 -6
16 -42 21 -50 7z"/>
<path d="M845 1294 c-12 -10 -14 -14 -5 -12 8 3 21 -2 29 -9 17 -17 28 -8 13
10 -7 8 -9 17 -5 20 13 14 -13 6 -32 -9z"/>
<path d="M587 1261 c-18 -11 -25 -21 -18 -25 14 -9 28 0 41 25 13 23 12 23
-23 0z"/>
<path d="M702 1264 c-19 -21 12 -31 32 -11 14 13 14 16 0 21 -19 7 -16 8 -32
-10z"/>
<path d="M1051 1242 c-7 -2 -10 -25 -9 -60 1 -35 3 -44 5 -25 3 21 9 30 17 27
7 -3 19 3 26 13 12 15 12 16 0 6 -8 -7 -18 -13 -22 -13 -15 0 -8 23 13 41 20
17 20 18 1 16 -10 0 -24 -3 -31 -5z"/>
<path d="M480 1215 c0 -16 -2 -17 -10 -5 -8 12 -10 9 -10 -12 0 -15 -4 -30
-10 -33 -5 -3 -10 -15 -10 -26 0 -13 -4 -18 -12 -13 -7 5 -8 3 -4 -5 6 -9 13
-8 27 5 15 13 16 19 7 25 -8 5 -4 11 15 18 19 8 27 17 27 36 0 14 5 25 10 25
6 0 10 -4 10 -10 0 -5 7 -7 15 -4 28 11 15 25 -20 22 -28 -2 -35 -6 -35 -23z"/>
<path d="M622 1213 c-15 -12 -30 -23 -34 -23 -5 0 -7 -6 -5 -12 1 -7 -5 -12
-14 -10 -9 1 -21 -9 -27 -24 -10 -20 -9 -24 0 -18 15 9 55 43 80 67 10 9 22
17 27 17 5 0 14 6 20 13 19 24 -17 16 -47 -10z"/>
<path d="M1156 1134 c-9 -23 -8 -27 9 -20 8 3 19 -2 24 -12 14 -23 14 3 1 29
-13 23 -26 24 -34 3z"/>
<path d="M361 1079 c-30 -25 -25 -28 19 -13 19 7 28 13 20 14 -13 0 -13 1 0
10 13 9 13 10 0 10 -8 -1 -26 -10 -39 -21z"/>
<path d="M290 1071 c-17 -18 -20 -43 -5 -53 6 -4 -3 -8 -18 -8 -18 0 -26 4
-21 11 4 8 -1 9 -15 4 -12 -4 -28 -2 -34 4 -9 7 -16 5 -25 -10 -12 -18 -9 -19
62 -19 58 0 75 3 80 16 9 23 8 27 -9 20 -9 -3 -15 0 -15 9 0 8 9 15 19 15 23
0 35 26 12 27 -9 0 -23 -7 -31 -16z"/>
<path d="M2703 1073 c-18 -2 -33 -8 -33 -13 0 -12 61 -7 85 8 20 11 20 11 0
10 -11 -1 -35 -3 -52 -5z"/>
<path d="M2459 1039 c-21 -13 -4 -21 36 -17 l38 3 -31 11 c-16 6 -36 8 -43 3z"/>
<path d="M2936 1011 c-3 -5 -16 -7 -29 -4 -20 6 -20 4 6 -21 15 -14 25 -31 22
-36 -9 -14 -52 -12 -58 3 -4 9 -6 9 -6 -1 -1 -10 -62 -11 -298 -5 -164 5 -623
8 -1021 8 -474 0 -722 3 -722 10 0 6 -4 4 -9 -4 -6 -10 -20 -12 -45 -8 -20 3
-36 2 -36 -4 0 -5 18 -9 40 -9 25 0 40 -5 40 -12 0 -10 2 -10 8 -1 14 23 1654
20 1957 -4 44 -3 83 -11 87 -17 5 -8 8 -7 8 2 0 14 46 17 55 2 3 -5 -3 -18
-15 -30 -26 -26 -25 -30 5 -30 14 0 25 -5 25 -11 0 -7 -18 -10 -50 -7 -47 3
-66 -4 -37 -15 8 -3 6 -10 -8 -21 -19 -16 -19 -16 10 -10 17 3 36 7 43 10 6 2
12 -4 12 -12 0 -8 -5 -12 -10 -9 -6 4 -16 2 -23 -4 -15 -11 -34 -10 -61 6 -10
6 -27 8 -36 6 -21 -6 -90 25 -90 39 0 6 9 7 23 3 12 -4 40 -10 63 -12 32 -4
43 -1 48 12 5 14 -3 16 -67 15 -39 -1 -79 0 -87 4 -25 9 -300 14 -300 5 0 -5
-4 -9 -9 -9 -6 0 -12 21 -14 48 l-3 47 -2 -47 c-1 -31 -7 -48 -14 -48 -7 0
-23 -3 -35 -6 -21 -6 -23 -3 -23 39 0 27 5 47 13 50 6 3 2 6 -10 6 -21 1 -23
-3 -23 -54 0 -48 -3 -55 -19 -55 -13 0 -21 9 -26 30 -9 42 -40 41 -40 -2 0
-17 -6 -33 -12 -35 -9 -3 -13 7 -13 31 0 23 -5 36 -13 36 -9 0 -11 -12 -9 -38
l4 -39 -71 -10 -71 -9 6 35 c3 20 8 44 11 54 3 12 -1 17 -16 17 -18 0 -21 -6
-21 -50 0 -27 -4 -50 -9 -50 -5 0 -12 -10 -17 -22 -5 -16 -9 0 -11 55 -4 76
-17 100 -29 52 -3 -14 -3 -37 2 -52 4 -16 8 -56 8 -91 1 -59 -5 -75 -19 -52
-3 6 -17 10 -31 10 -30 0 -32 23 -4 47 11 10 20 26 20 36 0 16 -3 17 -15 7
-12 -10 -15 -10 -16 1 0 8 -4 5 -9 -6 -7 -16 -9 -11 -11 23 -5 80 -4 87 9 85
6 -2 12 2 12 7 0 6 -9 10 -20 10 -18 0 -20 -7 -20 -55 0 -48 -2 -54 -17 -48
-10 4 -23 14 -30 22 -10 13 -12 5 -13 -46 l0 -63 -30 0 c-37 0 -38 13 -5 52
28 33 34 58 10 38 -8 -7 -15 -9 -15 -4 0 5 -5 2 -10 -6 -8 -12 -10 -8 -11 15
-1 17 -3 22 -6 13 -2 -10 -11 -18 -19 -18 -18 0 -18 -24 1 -40 8 -7 15 -20 15
-30 0 -13 -6 -16 -24 -13 -27 6 -39 37 -31 80 4 23 4 25 -4 8 -5 -11 -10 -32
-10 -47 -1 -23 -6 -28 -26 -28 -32 0 -32 18 0 52 30 32 32 42 6 29 -16 -9 -19
-6 -24 18 -3 15 -3 38 0 50 l5 21 -207 0 c-201 -1 -206 -2 -190 -20 9 -10 14
-24 10 -30 -6 -9 -10 -9 -16 1 -11 17 -10 1 1 -26 7 -18 9 -17 22 13 8 18 17
29 21 25 4 -3 7 -1 7 5 0 15 19 15 53 0 15 -7 25 -19 22 -25 -2 -8 4 -13 16
-13 19 0 19 1 4 16 -18 19 -3 47 21 37 16 -6 19 -63 3 -63 -7 0 -8 -11 -4 -31
6 -26 4 -30 -11 -27 -10 2 -21 14 -25 28 -6 21 -7 22 -8 4 -1 -16 -7 -20 -32
-18 -18 1 -35 8 -39 14 -4 7 -10 8 -13 3 -9 -15 -67 -3 -67 14 0 8 -4 12 -9 8
-19 -11 -8 -45 15 -45 11 0 34 -4 50 -9 16 -6 56 -12 89 -15 84 -8 105 -15
105 -37 0 -21 -34 -27 -45 -8 -4 5 -12 8 -18 6 -7 -2 -18 3 -25 12 -8 9 -11
10 -7 4 8 -16 -38 -18 -66 -2 -22 12 -62 3 -53 -12 3 -6 13 -9 22 -7 10 1 31
-2 47 -6 31 -9 81 -16 128 -19 15 -1 27 -6 27 -11 0 -4 7 -6 15 -2 8 3 20 0
27 -7 7 -7 24 -12 38 -13 43 -1 75 -9 82 -19 4 -5 8 -1 8 10 0 17 2 17 10 5 5
-8 10 -11 10 -7 0 4 9 3 21 -3 16 -9 19 -18 14 -37 -4 -16 -2 -22 5 -18 13 8
13 46 0 81 -6 15 -9 29 -6 31 2 2 31 -1 64 -8 l60 -13 7 -58 c4 -32 11 -58 17
-58 5 0 22 -13 37 -29 20 -22 34 -28 50 -24 11 3 21 10 21 15 0 6 7 8 15 4 8
-3 15 -2 15 3 0 5 -9 11 -20 14 -13 3 -20 0 -20 -9 0 -8 -9 -14 -20 -14 -17 0
-20 7 -20 38 0 37 1 38 30 34 17 -2 30 0 30 6 0 12 -24 22 -55 22 -22 0 -24
-3 -20 -37 4 -36 4 -37 -11 -18 -8 11 -18 19 -22 18 -4 -2 -8 9 -8 25 -1 15
-5 37 -9 50 -9 26 1 28 88 10 56 -12 58 -14 55 -40 -3 -16 1 -29 9 -32 9 -4
13 5 13 30 0 29 3 35 16 30 9 -3 22 -6 30 -6 8 0 11 -6 8 -15 -4 -8 -15 -15
-25 -15 -19 0 -25 -11 -13 -23 9 -9 44 16 44 31 0 7 4 11 8 8 4 -2 14 -1 22 5
12 7 10 9 -8 9 -14 0 -21 4 -16 11 4 8 0 9 -15 4 -13 -4 -21 -2 -21 5 0 8 11
11 30 8 17 -3 33 -1 36 4 3 4 15 8 27 8 12 0 34 6 49 14 20 11 28 11 32 3 2
-7 5 -4 5 6 1 9 9 17 18 17 14 0 12 -4 -7 -25 -13 -14 -30 -23 -36 -21 -7 3
-15 -2 -18 -10 -3 -8 -9 -14 -13 -13 -4 1 -16 1 -25 0 -22 -1 -24 -31 -3 -31
8 0 15 4 15 9 0 5 8 11 18 14 9 2 26 8 37 12 14 5 11 -1 -10 -19 l-30 -26 30
-1 c42 -2 59 1 63 11 2 5 10 6 18 3 14 -5 19 8 7 21 -9 9 -11 46 -2 46 4 0 10
-6 13 -12 3 -7 4 1 1 17 -7 48 8 109 28 113 27 5 24 -58 -3 -65 -28 -7 -26
-35 2 -31 12 2 23 -3 25 -12 4 -13 3 -13 -6 0 -7 9 -11 10 -11 3 0 -6 4 -14
10 -18 14 -8 0 -35 -19 -36 -12 0 -12 -2 4 -8 12 -5 25 -3 33 6 19 19 32 16
32 -7 0 -11 5 -20 10 -20 6 0 10 5 10 11 0 6 11 8 28 4 21 -4 33 -1 47 15 10
11 24 20 31 20 7 0 10 8 7 21 -5 17 -2 20 18 17 21 -3 24 -9 27 -56 2 -29 7
-50 12 -47 5 3 6 13 3 23 -4 9 6 4 21 -13 18 -19 26 -23 22 -12 -5 14 -2 16
11 9 20 -12 55 -3 50 12 -2 6 -18 12 -35 14 -23 2 -32 8 -32 22 0 10 -3 26 -7
35 -5 15 -1 17 28 12 19 -3 86 -13 149 -22 l115 -16 19 23 c10 13 25 32 32 43
10 14 17 16 22 8 4 -6 19 -9 35 -6 l27 5 0 139 c0 125 -6 159 -24 130z m-1398
-146 c-3 -13 -1 -26 5 -28 5 -1 8 -8 6 -14 -3 -8 -10 -7 -23 3 -17 12 -18 17
-6 39 17 32 24 32 18 0z m-108 4 c0 -4 8 -6 18 -5 9 2 20 -2 24 -8 5 -7 8 -4
8 7 0 9 5 17 10 17 6 0 10 -14 10 -31 0 -18 -4 -28 -10 -24 -6 4 -17 2 -25 -5
-9 -8 -15 -8 -20 0 -3 6 -10 8 -15 5 -5 -3 -11 -1 -15 5 -9 15 -25 12 -25 -5
0 -8 6 -12 13 -10 12 5 44 -51 35 -61 -11 -11 -38 10 -39 30 -2 20 -2 20 -6
-1 -3 -15 -12 -23 -24 -23 -23 0 -24 9 -4 46 10 20 11 30 3 35 -20 13 -1 36
31 36 17 0 31 -4 31 -8z m1060 -51 c0 -21 0 -21 14 -2 15 19 15 19 30 -1 13
-18 15 -18 21 -4 4 11 13 15 27 11 11 -2 24 1 28 8 5 9 9 9 14 1 4 -6 2 -11
-3 -11 -6 0 -11 -4 -11 -10 0 -6 9 -6 25 0 18 7 25 6 25 -3 0 -6 12 -13 27
-14 15 0 29 -6 31 -12 2 -6 11 -11 20 -11 15 0 15 -2 2 -10 -12 -8 -10 -10 8
-10 14 0 21 4 16 11 -4 7 3 6 17 -2 13 -7 25 -12 27 -11 9 7 22 -1 22 -13 0
-17 -41 -30 -70 -22 -11 3 -18 1 -14 -4 10 -17 -5 -9 -32 16 -24 22 -25 25 -8
26 10 1 -3 5 -30 11 -37 7 -51 6 -57 -4 -7 -11 -23 -14 -84 -17 -17 -1 -17 -3
-5 -11 11 -7 -1 -10 -42 -10 -36 0 -62 -5 -71 -15 -8 -8 -17 -11 -21 -8 -3 4
-6 -3 -6 -15 0 -12 -4 -22 -9 -22 -6 0 -10 8 -10 18 0 9 -2 28 -4 42 -3 14 -5
30 -6 35 0 6 -18 9 -41 7 -38 -4 -40 -2 -40 22 0 29 5 31 63 40 38 5 38 5 37
-27 -1 -18 -2 -37 -1 -43 1 -14 80 -12 106 3 20 11 27 13 46 13 5 0 7 5 4 10
-4 6 -9 9 -13 6 -4 -2 -30 0 -59 3 -46 7 -52 5 -59 -13 -6 -19 -7 -18 -11 7
-7 44 1 52 51 55 42 2 46 0 46 -20z m-1000 -43 c0 -24 -5 -35 -14 -35 -23 0
-30 20 -15 46 18 34 29 30 29 -11z m40 16 c0 -11 5 -21 11 -23 6 -2 10 -11 8
-20 -3 -12 -9 -13 -26 -7 -27 10 -34 69 -8 69 8 0 15 -9 15 -19z m640 -26 c0
-19 -4 -35 -10 -35 -5 0 -10 16 -10 35 0 19 5 35 10 35 6 0 10 -16 10 -35z
m35 8 c-2 -16 -4 -32 -4 -36 -1 -5 -5 -5 -11 -2 -11 7 -14 48 -3 58 14 15 21
6 18 -20z m-404 -23 c11 0 32 -50 25 -57 -3 -3 -19 1 -35 8 -25 11 -31 20 -31
46 0 34 23 52 28 21 2 -10 8 -18 13 -18z m329 10 c0 -23 -5 -30 -19 -30 -11 0
-21 -5 -23 -10 -2 -6 -23 -12 -47 -13 -37 -2 -44 1 -47 18 -7 40 5 53 47 53
23 1 44 3 47 6 3 3 14 6 24 6 13 0 18 -8 18 -30z m-150 -30 c0 -27 -4 -50 -10
-50 -5 0 -11 8 -11 18 -1 16 -2 16 -6 0 -2 -10 -9 -18 -14 -18 -16 0 -10 29
11 50 11 11 20 27 20 35 0 8 2 15 5 15 3 0 5 -22 5 -50z m-492 -22 c2 -4 8 -6
13 -3 4 3 31 3 59 -1 43 -6 50 -10 50 -29 0 -19 -5 -22 -37 -21 -21 0 -40 4
-43 8 -3 3 -32 10 -65 15 -52 7 -60 11 -63 31 -3 21 -1 22 40 16 24 -4 45 -11
46 -16z m862 12 c0 -5 -4 -10 -10 -10 -5 0 -10 -6 -10 -14 0 -10 7 -12 23 -8
20 5 21 4 8 -11 -15 -19 -56 -24 -45 -6 4 8 0 9 -15 4 -18 -5 -21 -2 -21 24 0
29 3 31 35 31 19 0 35 -4 35 -10z m-175 -64 c-4 -21 -13 -36 -21 -36 -17 0
-17 2 1 47 19 44 29 38 20 -11z"/>
<path d="M90 975 c0 -8 9 -15 20 -15 11 0 20 7 20 15 0 8 -9 15 -20 15 -11 0
-20 -7 -20 -15z"/>
<path d="M450 959 c0 -5 30 -9 67 -9 36 0 64 2 62 4 -9 8 -129 13 -129 5z"/>
<path d="M136 915 c11 -27 11 -35 2 -35 -7 -1 -2 -10 11 -21 28 -23 37 -19 22
9 -12 23 -6 32 25 32 13 0 24 -8 27 -20 5 -20 42 -28 49 -10 6 18 26 -5 30
-35 5 -43 27 -80 40 -67 6 6 16 8 23 6 7 -3 16 0 20 7 5 7 3 10 -6 7 -8 -3
-20 2 -27 11 -8 9 -11 10 -7 4 3 -7 1 -13 -4 -13 -15 0 -14 40 2 41 6 0 2 4
-10 9 -24 10 -30 34 -12 46 6 3 15 0 20 -7 6 -10 9 -4 9 19 0 17 -4 32 -10 32
-5 0 -7 -6 -4 -14 3 -9 -4 -15 -20 -18 -28 -6 -36 6 -11 16 32 12 13 26 -36
26 -28 0 -48 -4 -44 -9 3 -5 1 -12 -5 -16 -5 -3 -10 3 -10 14 0 14 -6 19 -20
18 -14 -1 -18 -6 -14 -19 3 -10 1 -18 -5 -18 -6 0 -11 9 -11 20 0 13 -7 20
-19 20 -19 0 -19 -2 -5 -35z"/>
<path d="M396 898 c-8 -33 -8 -34 19 -46 21 -10 25 -9 25 3 0 8 -5 14 -11 13
-6 -2 -14 4 -17 12 -2 8 -1 12 3 8 5 -4 14 -3 20 2 15 12 65 -3 65 -20 0 -21
18 -9 24 16 8 31 -1 45 -14 24 -7 -10 -10 -11 -10 -2 0 8 -17 12 -49 12 -42 0
-49 -3 -55 -22z"/>
<path d="M2050 909 c0 -5 18 -9 41 -9 22 0 38 4 35 9 -3 5 -22 9 -41 9 -19 0
-35 -4 -35 -9z"/>
<path d="M543 896 c-17 -20 -16 -31 0 -17 8 6 17 8 20 4 4 -3 7 -1 7 6 0 7 5
9 10 6 6 -4 8 -11 5 -16 -4 -5 3 -9 14 -9 18 0 21 -6 21 -37 0 -28 3 -34 10
-23 7 11 10 7 10 -17 0 -18 4 -33 8 -33 4 0 6 30 4 66 -4 60 -3 66 14 62 13
-2 20 -13 22 -36 2 -18 -1 -32 -7 -32 -6 0 -11 -7 -11 -15 0 -8 4 -15 9 -15 6
0 12 -15 14 -32 2 -18 5 1 7 42 2 62 4 69 10 40 l7 -35 2 32 c0 17 4 39 7 47
5 13 0 16 -22 16 -16 -1 -56 1 -89 5 -47 4 -63 2 -72 -9z"/>
<path d="M754 889 c-2 -4 2 -9 8 -12 10 -3 10 -8 -2 -22 -8 -10 -15 -23 -15
-29 0 -6 -7 -30 -14 -52 -10 -31 -11 -46 -3 -60 10 -16 11 -16 12 -3 0 9 6 22
14 28 11 10 16 6 24 -16 7 -21 8 -12 4 40 -3 50 -2 67 8 67 10 0 10 3 0 15 -7
9 -11 18 -8 20 8 8 26 -18 34 -49 4 -19 3 -27 -3 -23 -6 4 -13 -6 -15 -23 -4
-24 -1 -30 14 -30 14 0 18 8 18 39 0 33 3 38 22 37 13 0 24 -8 25 -16 1 -8 5
-33 9 -55 l7 -40 9 35 c7 24 6 36 -1 38 -13 4 -15 32 -2 32 5 0 11 -6 14 -12
2 -7 6 0 9 15 4 20 2 25 -5 18 -17 -17 -27 -13 -27 13 0 19 5 24 23 22 22 -1
24 -5 24 -60 0 -50 3 -60 19 -62 10 -2 24 2 32 8 10 9 14 6 19 -10 10 -38 18
-24 15 26 -4 47 -4 48 -33 44 -28 -4 -29 -3 -29 34 1 34 2 37 14 22 12 -16 14
-16 35 -1 18 12 25 13 31 3 6 -10 12 -9 30 3 31 22 16 25 -78 18 -46 -4 -86
-3 -89 1 -2 5 -10 5 -16 1 -7 -4 -20 -6 -29 -5 -10 2 -18 0 -18 -3 0 -12 27
-34 34 -28 3 4 6 -1 6 -11 0 -13 -7 -16 -27 -13 -23 3 -28 9 -25 29 2 23 -2
26 -33 30 -20 2 -38 1 -41 -3z"/>
<path d="M1100 884 c0 -8 5 -12 10 -9 6 3 10 -2 10 -12 0 -14 2 -15 9 -4 7 11
9 11 14 0 3 -8 6 -2 6 14 1 22 -3 27 -24 27 -16 0 -25 -6 -25 -16z"/>
<path d="M1610 876 c5 -13 6 -27 2 -32 -4 -4 1 -4 10 -1 10 3 20 2 23 -2 3 -5
14 -7 25 -4 14 4 20 14 20 34 0 24 -4 29 -24 29 -19 0 -23 -4 -19 -20 3 -11 0
-20 -6 -20 -6 0 -11 9 -11 20 0 11 -7 20 -15 20 -11 0 -12 -5 -5 -24z"/>
<path d="M1750 871 c0 -37 27 -50 36 -16 7 28 -1 45 -22 45 -9 0 -14 -10 -14
-29z"/>
<path d="M1868 893 c-2 -5 -1 -28 3 -53 l6 -45 1 53 c2 48 -2 63 -10 45z"/>
<path d="M1043 805 c-1 -41 14 -113 16 -80 1 6 6 3 11 -5 8 -12 10 -11 10 8 0
13 -6 22 -14 22 -11 0 -16 15 -19 53 l-3 52 -1 -50z"/>
<path d="M1240 831 c0 -5 3 -17 6 -25 6 -15 8 -15 19 1 7 10 11 21 9 25 -7 11
-34 10 -34 -1z"/>
<path d="M30 552 c0 -289 2 -300 46 -251 29 32 152 105 233 139 40 16 110 37
155 45 133 26 134 26 112 34 -26 10 -129 -5 -206 -31 -79 -26 -177 -74 -249
-123 -30 -20 -59 -37 -64 -38 -4 -1 -10 108 -12 242 -2 134 -6 246 -9 249 -3
3 -6 -117 -6 -266z"/>
<path d="M350 759 c0 -10 49 -21 60 -14 6 4 10 2 10 -3 0 -6 -12 -13 -27 -17
-16 -4 -23 -9 -16 -12 7 -2 10 -10 7 -18 -3 -7 -1 -16 4 -19 6 -4 9 5 7 19 -2
18 2 25 16 25 10 0 21 -4 24 -10 3 -5 1 -10 -6 -10 -7 0 -9 -3 -6 -7 4 -3 15
1 25 10 10 10 22 14 25 10 4 -3 7 -1 7 6 0 9 -8 11 -25 7 -21 -5 -25 -3 -25
14 0 12 5 18 10 15 6 -3 10 -2 10 3 0 6 -22 9 -50 8 -27 0 -50 -4 -50 -7z"/>
<path d="M515 690 c6 -20 4 -22 -19 -18 -14 3 -26 1 -26 -3 0 -5 12 -9 26 -9
l26 0 -23 -19 -24 -19 28 -11 c16 -6 34 -11 40 -11 7 0 6 -4 -3 -10 -13 -8
-13 -10 1 -10 9 0 23 -9 30 -20 12 -18 30 -22 129 -30 127 -10 307 -44 358
-67 19 -8 42 -13 53 -10 10 3 19 1 19 -4 0 -23 133 -49 145 -28 4 5 -1 9 -9 9
-9 0 -16 5 -16 10 0 6 -7 10 -15 10 -9 0 -18 7 -21 15 -6 15 -34 21 -34 7 0
-4 -9 -8 -20 -9 -17 -2 -20 2 -14 20 6 20 6 20 -10 4 -10 -9 -25 -17 -34 -16
-11 0 -12 2 -4 6 21 8 13 25 -9 18 -13 -4 -25 -2 -29 5 -4 7 -30 14 -58 15
-57 3 -92 13 -92 24 0 5 -16 7 -35 5 -20 -1 -41 4 -49 11 -13 14 -30 18 -56
16 -13 -1 -13 -3 -1 -10 10 -6 -1 -9 -32 -8 -26 1 -47 5 -47 9 0 4 -7 5 -15 2
-8 -4 -21 -1 -29 5 -7 6 -16 8 -20 4 -4 -4 -11 -1 -16 7 -8 12 -10 12 -10 1 0
-11 -3 -11 -15 -1 -8 7 -13 15 -11 19 3 4 1 13 -5 21 -6 11 -9 12 -9 2 0 -28
-19 0 -25 38 -4 22 -11 43 -17 46 -6 4 -8 -2 -3 -16z"/>
<path d="M2914 680 c-22 -11 -62 -40 -88 -66 -41 -40 -52 -45 -77 -40 -17 3
-28 2 -25 -2 2 -4 -4 -18 -13 -31 -20 -26 -23 -25 -128 7 -20 7 -33 7 -33 1 0
-5 -7 -9 -15 -9 -11 0 -14 7 -9 25 7 28 -13 36 -23 9 -4 -12 -8 -13 -14 -3 -6
10 -18 6 -49 -16 -48 -33 -57 -45 -36 -45 11 0 16 -9 16 -30 0 -20 -5 -30 -15
-30 -8 0 -15 -4 -15 -10 0 -13 -37 -13 -42 0 -2 7 -24 4 -59 -8 -54 -18 -71
-17 -129 5 -8 3 -21 7 -29 9 -8 1 -26 6 -39 9 -17 4 -23 2 -20 -7 3 -7 15 -15
27 -18 12 -3 22 -9 22 -15 0 -5 12 -8 26 -7 14 2 29 -2 34 -9 11 -19 39 -20
71 -3 16 8 34 12 40 8 16 -10 78 -12 78 -3 0 4 -6 10 -12 12 -7 3 1 3 18 0 18
-3 35 0 38 6 4 6 16 11 27 11 10 0 19 5 19 11 0 5 -5 7 -12 3 -8 -5 -9 2 -5
24 4 21 2 32 -8 36 -8 3 -15 11 -15 17 0 15 122 2 132 -14 10 -17 -9 -45 -34
-50 -20 -3 -19 -5 9 -12 18 -4 38 -14 44 -21 6 -8 18 -14 25 -14 8 0 14 -7 14
-16 0 -8 5 -12 10 -9 6 3 10 -3 10 -14 0 -11 8 -22 18 -25 9 -2 27 -7 39 -11
18 -5 22 -3 17 9 -3 9 -13 16 -21 16 -10 0 -13 6 -9 16 3 8 2 13 -2 10 -5 -3
-21 8 -36 25 -15 16 -35 29 -44 29 -11 1 -7 6 11 16 33 18 27 37 -7 24 -18 -6
-23 -5 -23 8 -2 34 6 45 22 32 8 -7 33 -13 54 -14 30 0 38 -4 34 -16 -2 -8 3
-3 11 12 16 27 33 29 64 5 10 -8 16 -7 22 4 6 9 5 16 -5 19 -10 4 -11 9 -5 20
5 8 10 10 10 3 0 -6 9 -9 20 -6 11 3 20 13 20 23 0 25 45 66 96 87 24 10 44
24 44 31 0 6 -1 12 -2 11 -2 0 -21 -9 -44 -19z"/>
<path d="M2940 640 c0 -11 -4 -20 -10 -20 -5 0 -10 -5 -10 -10 0 -7 6 -7 20 0
20 11 28 50 10 50 -5 0 -10 -9 -10 -20z"/>
<path d="M1655 630 c4 -6 11 -8 16 -5 5 4 9 -10 9 -29 0 -20 -4 -36 -10 -36
-5 0 -2 -8 8 -18 14 -14 19 -15 30 -5 7 7 20 13 28 13 8 0 14 5 14 10 0 6 -6
10 -14 10 -8 0 -18 -4 -21 -10 -12 -20 -25 -9 -25 20 0 24 4 30 18 28 9 -2 20
-7 24 -13 5 -6 8 -4 8 4 0 8 -8 20 -17 27 -21 16 -77 19 -68 4z"/>
<path d="M2445 632 c-5 -4 -11 -12 -12 -18 -3 -17 34 -5 41 12 6 15 -12 19
-29 6z"/>
<path d="M1391 603 c-1 -7 -8 -13 -17 -13 -14 0 -14 -2 0 -15 15 -16 36 -20
35 -7 -1 15 -18 46 -18 35z"/>
<path d="M2607 602 c-26 -5 -15 -26 16 -30 21 -3 27 1 27 15 0 14 -2 15 -9 4
-8 -12 -9 -12 -12 0 -2 8 -12 13 -22 11z"/>
<path d="M2849 581 c-24 -20 -24 -20 -4 -35 11 -8 27 -15 35 -15 10 1 10 3 -3
6 -9 2 -15 9 -12 14 8 12 45 12 45 0 0 -5 9 -7 20 -4 22 6 25 -4 10 -27 -7
-11 -10 -11 -10 -2 0 9 -5 10 -17 4 -31 -16 -75 -24 -68 -12 3 5 1 10 -4 10
-6 0 -11 -4 -11 -10 0 -5 -5 -10 -11 -10 -5 0 -7 5 -4 10 3 6 1 10 -5 10 -17
0 -25 -31 -10 -40 7 -4 10 -15 7 -24 -4 -9 -2 -26 3 -38 7 -18 9 -19 9 -5 1
11 9 17 27 17 15 0 23 4 19 11 -4 6 -13 8 -21 5 -16 -6 -19 10 -4 19 6 4 8 11
5 16 -9 13 3 11 21 -3 38 -33 45 -42 40 -54 -3 -8 1 -14 9 -14 17 0 20 -35 5
-45 -7 -4 -7 -13 0 -26 7 -13 7 -19 0 -19 -5 0 -10 -7 -10 -15 0 -16 -45 -40
-67 -36 -8 1 -11 -10 -10 -29 1 -16 4 -30 5 -30 2 0 30 19 63 41 l59 42 0 154
0 153 -22 -14 c-24 -14 -88 -29 -88 -20 0 3 15 11 33 19 25 11 28 14 11 15
-12 0 -32 -9 -45 -19z m51 -103 c0 -9 4 -8 10 2 6 9 10 10 10 3 0 -6 3 -18 6
-27 3 -9 2 -16 -2 -16 -13 1 -47 50 -34 50 5 0 10 -6 10 -12z"/>
<path d="M1487 566 c-4 -9 5 -16 26 -20 25 -5 29 -9 17 -16 -13 -8 -13 -10 2
-10 28 0 31 19 4 30 -14 5 -26 14 -26 20 0 15 -17 12 -23 -4z"/>
<path d="M1617 553 c-5 -7 -18 -14 -30 -14 -20 -1 -21 -2 -2 -6 11 -3 27 -12
36 -19 14 -13 17 -13 22 1 4 8 2 15 -3 15 -5 0 -10 8 -12 18 -3 12 -6 14 -11
5z"/>
<path d="M1750 517 c0 -10 -8 -13 -27 -10 -31 5 -15 -9 25 -21 18 -6 22 -3 22
13 0 11 -4 23 -10 26 -5 3 -10 0 -10 -8z"/>
<path d="M1232 508 c-14 -14 -17 -32 -4 -24 5 3 15 -6 22 -19 14 -25 30 -33
30 -15 0 13 27 13 32 0 3 -8 138 -54 198 -66 25 -6 60 -19 92 -35 10 -5 29 -9
43 -9 14 0 28 -7 31 -15 4 -8 19 -15 34 -15 16 0 32 -4 35 -10 3 -6 16 -10 28
-10 13 0 40 -9 62 -20 22 -11 50 -20 63 -20 13 0 21 -4 17 -9 -3 -5 -1 -12 4
-16 6 -3 19 15 30 40 21 47 45 78 54 69 2 -3 30 7 62 21 71 33 67 43 -5 12
-42 -17 -54 -19 -58 -9 -3 9 -8 6 -16 -9 -6 -12 -23 -26 -38 -30 -15 -4 -35
-14 -44 -23 -17 -17 -35 -15 -88 10 -16 8 -35 14 -42 14 -7 0 -33 9 -59 20
-25 11 -56 22 -68 25 -12 2 -73 22 -136 44 -63 22 -117 39 -120 39 -3 -1 -13
2 -21 5 -8 3 -26 7 -40 9 -14 2 -26 9 -26 16 -1 6 -2 15 -3 19 0 3 -10 -2 -21
-12 -20 -18 -21 -18 -32 23 -3 10 -6 10 -16 0z"/>
<path d="M2705 499 c-11 -17 -3 -22 60 -34 29 -6 29 -6 11 9 -11 9 -26 16 -33
16 -7 0 -13 5 -13 10 0 13 -17 13 -25 -1z"/>
<path d="M2350 479 c0 -6 7 -9 15 -6 8 4 17 2 20 -4 4 -5 11 -7 16 -3 5 3 7
10 4 15 -9 13 -55 11 -55 -2z"/>
<path d="M1965 460 c-3 -5 0 -10 7 -10 7 -1 2 -7 -12 -15 -14 -8 -34 -12 -45
-9 -17 4 -18 3 -4 -5 12 -8 27 -7 54 5 42 17 85 12 85 -11 0 -8 7 -15 15 -15
22 0 18 13 -9 40 -16 14 -31 20 -42 16 -9 -3 -22 -2 -29 4 -9 8 -15 8 -20 0z"/>
<path d="M2706 444 c-8 -21 -9 -20 37 -32 30 -8 37 -8 37 4 0 9 -11 14 -35 14
-26 0 -33 3 -29 15 4 8 4 15 1 15 -3 0 -8 -7 -11 -16z"/>
<path d="M1246 381 c5 -5 124 -55 264 -111 374 -150 505 -192 605 -192 44 -1
52 -3 30 -8 -16 -3 51 -7 149 -7 99 -1 191 3 204 8 14 5 44 10 68 11 23 1 40
6 38 10 -3 4 3 7 13 6 35 -3 54 2 48 12 -6 10 15 14 44 11 7 -2 10 2 6 8 -4 7
4 11 20 11 14 0 24 4 21 9 -4 5 0 12 6 15 7 3 0 4 -17 0 -16 -3 -48 -14 -70
-24 -22 -11 -66 -22 -97 -26 -32 -4 -55 -10 -53 -15 8 -11 -12 -13 -195 -12
-154 1 -251 12 -292 34 -10 5 -29 9 -43 9 -14 0 -33 4 -43 9 -9 5 -44 16 -77
26 -33 10 -73 22 -90 28 -16 7 -36 12 -43 13 -6 1 -31 12 -55 23 -24 12 -51
21 -60 21 -9 0 -17 4 -17 8 0 5 -6 9 -12 10 -7 0 -84 28 -170 61 -147 57 -205
74 -182 52z"/>
<path d="M2243 378 c-2 -5 14 -8 37 -8 24 0 39 4 35 10 -6 11 -64 9 -72 -2z"/>
<path d="M2648 314 c17 -8 32 -19 32 -24 0 -6 11 -10 24 -10 14 0 38 -11 53
-24 26 -23 26 -25 6 -19 -30 7 -29 -4 2 -33 48 -45 79 0 33 47 -16 15 -28 35
-28 44 0 12 -4 14 -19 6 -14 -8 -22 -7 -31 4 -7 8 -16 13 -20 10 -5 -3 -11 -2
-14 3 -2 4 -19 8 -38 9 l-33 2 33 -15z"/>
<path d="M2232 189 c34 -18 58 -20 58 -6 0 11 -10 15 -35 14 -20 -1 -30 -4
-23 -8z"/>
<path d="M2298 43 c18 -2 45 -2 60 0 15 2 0 4 -33 4 -33 0 -45 -2 -27 -4z"/>
</g>
</svg>
